Latin-Mizra-SemiBold - Without Production Names.ufo
<glyph name="exclam" format="1">
  <advance width="245"/>
  <unicode hex="0021"/>
  <outline>
    <contour>
      <point x="91" y="181" type="line"/>
      <point x="116" y="205"/>
      <point x="145" y="230"/>
      <point x="176" y="253" type="curve"/>
      <point x="176" y="374"/>
      <point x="181" y="494"/>
      <point x="188" y="547" type="curve"/>
      <point x="130" y="547"/>
      <point x="91" y="540"/>
      <point x="44" y="520" type="curve"/>
      <point x="56" y="499"/>
      <point x="63" y="439"/>
      <point x="63" y="365" type="curve" smooth="yes"/>
      <point x="63" y="181" type="line"/>
    </contour>
    <contour>
      <point x="155" y="11"/>
      <point x="182" y="38"/>
      <point x="208" y="70" type="curve"/>
      <point x="176" y="96"/>
      <point x="149" y="123"/>
      <point x="123" y="155" type="curve"/>
      <point x="91" y="129"/>
      <point x="64" y="102"/>
      <point x="38" y="70" type="curve"/>
      <point x="70" y="44"/>
      <point x="97" y="17"/>
      <point x="123" y="-15" type="curve"/>
    </contour>
  </outline>
</glyph>
<glyph name="dollar" format="1">
  <advance width="464"/>
  <unicode hex="0024"/>
  <outline>
    <contour>
      <point x="248" y="-86"/>
      <point x="263" y="-84"/>
      <point x="277" y="-79" type="curve"/>
      <point x="273" y="-62"/>
      <point x="270" y="-31"/>
      <point x="268" y="12" type="curve"/>
      <point x="379" y="22"/>
      <point x="434" y="72"/>
      <point x="434" y="151" type="curve" smooth="yes"/>
      <point x="434" y="313"/>
      <point x="163" y="308"/>
      <point x="163" y="397" type="curve" smooth="yes"/>
      <point x="163" y="422"/>
      <point x="187" y="437"/>
      <point x="206" y="440" type="curve"/>
      <point x="250" y="440"/>
      <point x="317" y="405"/>
      <point x="374" y="361" type="curve"/>
      <point x="396" y="390"/>
      <point x="415" y="450"/>
      <point x="415" y="489" type="curve"/>
      <point x="375" y="503"/>
      <point x="324" y="511"/>
      <point x="269" y="513" type="curve"/>
      <point x="270" y="549"/>
      <point x="271" y="581"/>
      <point x="273" y="606" type="curve"/>
      <point x="257" y="611"/>
      <point x="243" y="613"/>
      <point x="229" y="613" type="curve" smooth="yes"/>
      <point x="216" y="613"/>
      <point x="200" y="610"/>
      <point x="187" y="606" type="curve"/>
      <point x="191" y="588"/>
      <point x="193" y="555"/>
      <point x="195" y="509" type="curve"/>
      <point x="95" y="496"/>
      <point x="34" y="444"/>
      <point x="34" y="374" type="curve" smooth="yes"/>
      <point x="34" y="216"/>
      <point x="305" y="213"/>
      <point x="305" y="131" type="curve" smooth="yes"/>
      <point x="305" y="99"/>
      <point x="272" y="80"/>
      <point x="211" y="80" type="curve" smooth="yes"/>
      <point x="144" y="80"/>
      <point x="81" y="99"/>
      <point x="47" y="131" type="curve"/>
      <point x="35" y="104"/>
      <point x="30" y="80"/>
      <point x="30" y="45" type="curve"/>
      <point x="73" y="26"/>
      <point x="129" y="12"/>
      <point x="193" y="10" type="curve"/>
      <point x="193" y="-25"/>
      <point x="191" y="-55"/>
      <point x="190" y="-79" type="curve"/>
      <point x="207" y="-84"/>
      <point x="221" y="-86"/>
      <point x="235" y="-86" type="curve" smooth="yes"/>
    </contour>
    <contour>
      <point x="228" y="527" type="move" name="top"/>
    </contour>
    <contour>
      <point x="228" y="0" type="move" name="bottom"/>
    </contour>
  </outline>
</glyph>
<glyph name="quotesingle" format="1">
  <advance width="159"/>
  <unicode hex="0027"/>
  <outline>
    <contour>
      <point x="123" y="310" type="line"/>
      <point x="123" y="400"/>
      <point x="124" y="470"/>
      <point x="135" y="549" type="curve"/>
      <point x="94" y="549"/>
      <point x="67" y="544"/>
      <point x="33" y="532" type="curve"/>
      <point x="33" y="375" type="line"/>
      <point x="56" y="354"/>
      <point x="78" y="333"/>
      <point x="96" y="310" type="curve"/>
    </contour>
  </outline>
</glyph>
<glyph name="two" format="1">
  <advance width="514"/>
  <unicode hex="0032"/>
  <outline>
    <contour>
      <point x="466" y="17"/>
      <point x="475" y="80"/>
      <point x="475" y="130" type="curve"/>
      <point x="434" y="114"/>
      <point x="361" y="104"/>
      <point x="290" y="104" type="curve" smooth="yes"/>
      <point x="263" y="104"/>
      <point x="232" y="105"/>
      <point x="208" y="108" type="curve"/>
      <point x="369" y="218"/>
      <point x="449" y="316"/>
      <point x="449" y="402" type="curve" smooth="yes"/>
      <point x="449" y="483"/>
      <point x="373" y="533"/>
      <point x="250" y="533" type="curve" smooth="yes"/>
      <point x="172" y="533"/>
      <point x="94" y="520"/>
      <point x="46" y="499" type="curve"/>
      <point x="46" y="460"/>
      <point x="66" y="400"/>
      <point x="88" y="371" type="curve"/>
      <point x="154" y="421"/>
      <point x="221" y="455"/>
      <point x="263" y="460" type="curve"/>
      <point x="300" y="454"/>
      <point x="319" y="430"/>
      <point x="319" y="394" type="curve" smooth="yes"/>
      <point x="319" y="312"/>
      <point x="240" y="201"/>
      <point x="38" y="45" type="curve"/>
      <point x="38" y="0" type="line"/>
      <point x="141" y="6"/>
      <point x="407" y="3"/>
      <point x="455" y="-5" type="curve"/>
    </contour>
  </outline>
</glyph>
<glyph name="six" format="1">
  <advance width="510"/>
  <unicode hex="0036"/>
  <outline>
    <contour>
      <point x="387" y="-9"/>
      <point x="480" y="64"/>
      <point x="480" y="168" type="curve" smooth="yes"/>
      <point x="480" y="270"/>
      <point x="405" y="338"/>
      <point x="294" y="338" type="curve" smooth="yes"/>
      <point x="248" y="338"/>
      <point x="205" y="324"/>
      <point x="165" y="297" type="curve"/>
      <point x="177" y="379"/>
      <point x="214" y="433"/>
      <point x="270" y="452" type="curve"/>
      <point x="300" y="452"/>
      <point x="359" y="421"/>
      <point x="404" y="381" type="curve"/>
      <point x="426" y="407"/>
      <point x="448" y="469"/>
      <point x="448" y="509" type="curve"/>
      <point x="412" y="525"/>
      <point x="368" y="533"/>
      <point x="317" y="533" type="curve" smooth="yes"/>
      <point x="129" y="533"/>
      <point x="30" y="426"/>
      <point x="30" y="223" type="curve" smooth="yes"/>
      <point x="30" y="84"/>
      <point x="120" y="-9"/>
      <point x="254" y="-9" type="curve" smooth="yes"/>
    </contour>
    <contour>
      <point x="197" y="60"/>
      <point x="159" y="120"/>
      <point x="159" y="221" type="curve" smooth="yes"/>
      <point x="159" y="227" type="line"/>
      <point x="183" y="247"/>
      <point x="212" y="262"/>
      <point x="244" y="272" type="curve"/>
      <point x="310" y="272"/>
      <point x="351" y="233"/>
      <point x="351" y="171" type="curve" smooth="yes"/>
      <point x="351" y="104"/>
      <point x="316" y="60"/>
      <point x="261" y="60" type="curve" smooth="yes"/>
    </contour>
  </outline>
</glyph>
<glyph name="I" format="1">
  <advance width="251"/>
  <unicode hex="0049"/>
  <outline>
    <contour>
      <point x="155" y="-6"/>
      <point x="178" y="-4"/>
      <point x="201" y="0" type="curve"/>
      <point x="190" y="29"/>
      <point x="185" y="104"/>
      <point x="185" y="227" type="curve" smooth="yes"/>
      <point x="185" y="327"/>
      <point x="190" y="458"/>
      <point x="196" y="527" type="curve"/>
      <point x="169" y="531"/>
      <point x="145" y="533"/>
      <point x="125" y="533" type="curve" smooth="yes"/>
      <point x="99" y="533"/>
      <point x="73" y="531"/>
      <point x="50" y="527" type="curve"/>
      <point x="60" y="497"/>
      <point x="66" y="415"/>
      <point x="66" y="293" type="curve" smooth="yes"/>
      <point x="66" y="197"/>
      <point x="60" y="71"/>
      <point x="55" y="0" type="curve"/>
      <point x="84" y="-4"/>
      <point x="110" y="-6"/>
      <point x="133" y="-6" type="curve" smooth="yes"/>
    </contour>
    <contour>
      <point x="201" y="0" type="move" name="ogonek"/>
    </contour>
    <contour>
      <point x="125" y="527" type="move" name="top"/>
    </contour>
    <contour>
      <point x="20" y="527" type="move" name="topleft"/>
    </contour>
    <contour>
      <point x="125" y="0" type="move" name="bottom"/>
    </contour>
  </outline>
</glyph>
<glyph name="K" format="1">
  <advance width="528"/>
  <unicode hex="004B"/>
  <outline>
    <contour>
      <point x="155" y="-6"/>
      <point x="178" y="-4"/>
      <point x="201" y="0" type="curve"/>
      <point x="191" y="26"/>
      <point x="186" y="87"/>
      <point x="185" y="186" type="curve"/>
      <point x="195" y="199"/>
      <point x="207" y="212"/>
      <point x="218" y="225" type="curve"/>
      <point x="293" y="119"/>
      <point x="350" y="35"/>
      <point x="374" y="-6" type="curve"/>
      <point x="434" y="-6"/>
      <point x="481" y="-1"/>
      <point x="528" y="15" type="curve"/>
      <point x="469" y="59"/>
      <point x="381" y="184"/>
      <point x="299" y="316" type="curve"/>
      <point x="367" y="393"/>
      <point x="441" y="472"/>
      <point x="504" y="533" type="curve"/>
      <point x="457" y="533"/>
      <point x="417" y="531"/>
      <point x="363" y="522" type="curve"/>
      <point x="363" y="493"/>
      <point x="342" y="446"/>
      <point x="185" y="280" type="curve"/>
      <point x="186" y="369"/>
      <point x="191" y="470"/>
      <point x="196" y="527" type="curve"/>
      <point x="169" y="531"/>
      <point x="145" y="533"/>
      <point x="125" y="533" type="curve" smooth="yes"/>
      <point x="99" y="533"/>
      <point x="73" y="531"/>
      <point x="50" y="527" type="curve"/>
      <point x="60" y="497"/>
      <point x="66" y="415"/>
      <point x="66" y="293" type="curve" smooth="yes"/>
      <point x="66" y="197"/>
      <point x="61" y="71"/>
      <point x="55" y="0" type="curve"/>
      <point x="84" y="-4"/>
      <point x="110" y="-6"/>
      <point x="133" y="-6" type="curve" smooth="yes"/>
    </contour>
    <contour>
      <point x="264" y="527" type="move" name="top"/>
    </contour>
    <contour>
      <point x="264" y="0" type="move" name="bottom"/>
    </contour>
  </outline>
</glyph>
<glyph name="N" format="1">
  <advance width="545"/>
  <unicode hex="004E"/>
  <outline>
    <contour>
      <point x="114" y="-6"/>
      <point x="129" y="-4"/>
      <point x="143" y="0" type="curve"/>
      <point x="136" y="30"/>
      <point x="132" y="107"/>
      <point x="132" y="227" type="curve" smooth="yes"/>
      <point x="132" y="278"/>
      <point x="133" y="334"/>
      <point x="135" y="386" type="curve"/>
      <point x="211" y="257"/>
      <point x="310" y="83"/>
      <point x="353" y="0" type="curve"/>
      <point x="381" y="-4"/>
      <point x="410" y="-6"/>
      <point x="432" y="-6" type="curve" smooth="yes"/>
      <point x="456" y="-6"/>
      <point x="480" y="-4"/>
      <point x="500" y="0" type="curve"/>
      <point x="493" y="31"/>
      <point x="489" y="110"/>
      <point x="489" y="234" type="curve" smooth="yes"/>
      <point x="489" y="336"/>
      <point x="493" y="462"/>
      <point x="497" y="527" type="curve"/>
      <point x="477" y="531"/>
      <point x="459" y="533"/>
      <point x="445" y="533" type="curve" smooth="yes"/>
      <point x="430" y="533"/>
      <point x="416" y="531"/>
      <point x="401" y="527" type="curve"/>
      <point x="409" y="497"/>
      <point x="412" y="420"/>
      <point x="412" y="300" type="curve" smooth="yes"/>
      <point x="412" y="250"/>
      <point x="411" y="193"/>
      <point x="410" y="141" type="curve"/>
      <point x="334" y="269"/>
      <point x="234" y="444"/>
      <point x="192" y="527" type="curve"/>
      <point x="160" y="531"/>
      <point x="135" y="533"/>
      <point x="113" y="533" type="curve" smooth="yes"/>
      <point x="90" y="533"/>
      <point x="63" y="531"/>
      <point x="45" y="527" type="curve"/>
      <point x="52" y="496"/>
      <point x="56" y="417"/>
      <point x="56" y="293" type="curve" smooth="yes"/>
      <point x="56" y="191"/>
      <point x="53" y="65"/>
      <point x="48" y="0" type="curve"/>
      <point x="68" y="-4"/>
      <point x="85" y="-6"/>
      <point x="100" y="-6" type="curve" smooth="yes"/>
    </contour>
    <contour>
      <point x="272" y="527" type="move" name="top"/>
    </contour>
    <contour>
      <point x="272" y="0" type="move" name="bottom"/>
    </contour>
  </outline>
</glyph>
<glyph name="U" format="1">
  <advance width="533"/>
  <unicode hex="0055"/>
  <outline>
    <contour>
      <point x="439" y="-5"/>
      <point x="485" y="98"/>
      <point x="485" y="205" type="curve" smooth="yes"/>
      <point x="485" y="305"/>
      <point x="489" y="453"/>
      <point x="493" y="527" type="curve"/>
      <point x="475" y="531"/>
      <point x="459" y="533"/>
      <point x="445" y="533" type="curve" smooth="yes"/>
      <point x="430" y="533"/>
      <point x="413" y="531"/>
      <point x="398" y="527" type="curve"/>
      <point x="404" y="484"/>
      <point x="406" y="325"/>
      <point x="406" y="200" type="curve" smooth="yes"/>
      <point x="406" y="140"/>
      <point x="381" y="85"/>
      <point x="288" y="85" type="curve" smooth="yes"/>
      <point x="220" y="85"/>
      <point x="180" y="123"/>
      <point x="180" y="213" type="curve" smooth="yes"/>
      <point x="180" y="322"/>
      <point x="183" y="458"/>
      <point x="186" y="527" type="curve"/>
      <point x="159" y="531"/>
      <point x="135" y="533"/>
      <point x="115" y="533" type="curve" smooth="yes"/>
      <point x="90" y="533"/>
      <point x="64" y="531"/>
      <point x="40" y="527" type="curve"/>
      <point x="51" y="484"/>
      <point x="56" y="323"/>
      <point x="56" y="200" type="curve" smooth="yes"/>
      <point x="56" y="69"/>
      <point x="134" y="-5"/>
      <point x="268" y="-5" type="curve" smooth="yes"/>
    </contour>
    <contour>
      <point x="368" y="11" type="move" name="ogonek"/>
    </contour>
    <contour>
      <point x="287" y="527" type="move" name="top"/>
    </contour>
    <contour>
      <point x="513" y="527" type="move" name="topright"/>
    </contour>
    <contour>
      <point x="267" y="0" type="move" name="bottom"/>
    </contour>
  </outline>
</glyph>
<glyph name="Y" format="1">
  <advance width="498"/>
  <unicode hex="0059"/>
  <outline>
    <contour>
      <point x="280" y="-6"/>
      <point x="303" y="-4"/>
      <point x="326" y="0" type="curve"/>
      <point x="315" y="25"/>
      <point x="310" y="88"/>
      <point x="310" y="188" type="curve"/>
      <point x="355" y="288"/>
      <point x="426" y="436"/>
      <point x="493" y="533" type="curve"/>
      <point x="451" y="533"/>
      <point x="418" y="532"/>
      <point x="371" y="527" type="curve"/>
      <point x="369" y="494"/>
      <point x="342" y="415"/>
      <point x="275" y="284" type="curve"/>
      <point x="212" y="401"/>
      <point x="169" y="510"/>
      <point x="162" y="533" type="curve"/>
      <point x="102" y="533"/>
      <point x="52" y="528"/>
      <point x="5" y="512" type="curve"/>
      <point x="30" y="488"/>
      <point x="124" y="335"/>
      <point x="190" y="187" type="curve"/>
      <point x="189" y="116"/>
      <point x="185" y="42"/>
      <point x="180" y="0" type="curve"/>
      <point x="209" y="-4"/>
      <point x="235" y="-6"/>
      <point x="258" y="-6" type="curve" smooth="yes"/>
    </contour>
    <contour>
      <point x="269" y="527" type="move" name="top"/>
    </contour>
    <contour>
      <point x="249" y="0" type="move" name="bottom"/>
    </contour>
    <contour>
      <point x="20" y="527" type="move" name="topleft"/>
    </contour>
  </outline>
</glyph>
<glyph name="Z" format="1">
  <advance width="465"/>
  <unicode hex="005A"/>
  <outline>
    <contour>
      <point x="437" y="21"/>
      <point x="445" y="89"/>
      <point x="445" y="130" type="curve"/>
      <point x="400" y="113"/>
      <point x="327" y="104"/>
      <point x="263" y="104" type="curve" smooth="yes"/>
      <point x="231" y="104"/>
      <point x="195" y="106"/>
      <point x="169" y="109" type="curve"/>
      <point x="250" y="209"/>
      <point x="390" y="378"/>
      <point x="427" y="429" type="curve" smooth="yes"/>
      <point x="443" y="451"/>
      <point x="449" y="469"/>
      <point x="449" y="490" type="curve" smooth="yes"/>
      <point x="449" y="506"/>
      <point x="440" y="530"/>
      <point x="417" y="546" type="curve"/>
      <point x="381" y="524"/>
      <point x="327" y="516"/>
      <point x="233" y="516" type="curve" smooth="yes"/>
      <point x="145" y="516"/>
      <point x="65" y="520"/>
      <point x="28" y="527" type="curve"/>
      <point x="28" y="485"/>
      <point x="39" y="429"/>
      <point x="55" y="392" type="curve"/>
      <point x="77" y="405"/>
      <point x="107" y="410"/>
      <point x="158" y="410" type="curve" smooth="yes"/>
      <point x="217" y="410"/>
      <point x="280" y="408"/>
      <point x="329" y="407" type="curve"/>
      <point x="196" y="238"/>
      <point x="74" y="97"/>
      <point x="17" y="45" type="curve"/>
      <point x="17" y="0" type="line"/>
      <point x="93" y="5"/>
      <point x="366" y="5"/>
      <point x="425" y="-5" type="curve"/>
    </contour>
    <contour>
      <point x="233" y="527" type="move" name="top"/>
    </contour>
    <contour>
      <point x="233" y="0" type="move" name="bottom"/>
    </contour>
  </outline>
</glyph>
<glyph name="m" format="1">
  <advance width="754"/>
  <unicode hex="006D"/>
  <outline>
    <contour>
      <point x="177" y="-6"/>
      <point x="202" y="-4"/>
      <point x="221" y="0" type="curve"/>
      <point x="208" y="29"/>
      <point x="201" y="82"/>
      <point x="201" y="150" type="curve" smooth="yes"/>
      <point x="201" y="203"/>
      <point x="202" y="248"/>
      <point x="204" y="285" type="curve"/>
      <point x="221" y="297"/>
      <point x="240" y="303"/>
      <point x="266" y="303" type="curve" smooth="yes"/>
      <point x="309" y="303"/>
      <point x="327" y="281"/>
      <point x="327" y="228" type="curve" smooth="yes"/>
      <point x="327" y="148"/>
      <point x="324" y="60"/>
      <point x="320" y="0" type="curve"/>
      <point x="343" y="-4"/>
      <point x="368" y="-6"/>
      <point x="388" y="-6" type="curve" smooth="yes"/>
      <point x="413" y="-6"/>
      <point x="447" y="-4"/>
      <point x="466" y="0" type="curve"/>
      <point x="453" y="29"/>
      <point x="446" y="82"/>
      <point x="446" y="150" type="curve" smooth="yes"/>
      <point x="446" y="181"/>
      <point x="449" y="247"/>
      <point x="449" y="285" type="curve"/>
      <point x="466" y="298"/>
      <point x="485" y="303"/>
      <point x="511" y="303" type="curve" smooth="yes"/>
      <point x="554" y="303"/>
      <point x="572" y="281"/>
      <point x="572" y="228" type="curve" smooth="yes"/>
      <point x="572" y="148"/>
      <point x="569" y="60"/>
      <point x="565" y="0" type="curve"/>
      <point x="588" y="-4"/>
      <point x="613" y="-6"/>
      <point x="633" y="-6" type="curve" smooth="yes"/>
      <point x="658" y="-6"/>
      <point x="692" y="-4"/>
      <point x="711" y="0" type="curve"/>
      <point x="698" y="29"/>
      <point x="691" y="82"/>
      <point x="691" y="150" type="curve" smooth="yes"/>
      <point x="691" y="181"/>
      <point x="695" y="251"/>
      <point x="695" y="280" type="curve" smooth="yes"/>
      <point x="695" y="362"/>
      <point x="663" y="418"/>
      <point x="571" y="418" type="curve" smooth="yes"/>
      <point x="519" y="418"/>
      <point x="472" y="391"/>
      <point x="440" y="347" type="curve"/>
      <point x="425" y="391"/>
      <point x="390" y="418"/>
      <point x="326" y="418" type="curve" smooth="yes"/>
      <point x="278" y="418"/>
      <point x="235" y="395"/>
      <point x="203" y="356" type="curve"/>
      <point x="196" y="393"/>
      <point x="176" y="414"/>
      <point x="135" y="414" type="curve" smooth="yes"/>
      <point x="112" y="414"/>
      <point x="74" y="405"/>
      <point x="43" y="378" type="curve"/>
      <point x="74" y="344"/>
      <point x="82" y="321"/>
      <point x="82" y="213" type="curve" smooth="yes"/>
      <point x="82" y="139"/>
      <point x="79" y="57"/>
      <point x="75" y="0" type="curve"/>
      <point x="98" y="-4"/>
      <point x="132" y="-6"/>
      <point x="156" y="-6" type="curve" smooth="yes"/>
    </contour>
    <contour>
      <point x="378" y="407" type="move" name="top"/>
    </contour>
    <contour>
      <point x="378" y="0" type="move" name="bottom"/>
    </contour>
  </outline>
</glyph>
<glyph name="n" format="1">
  <advance width="514"/>
  <unicode hex="006E"/>
  <outline>
    <contour>
      <point x="177" y="-6"/>
      <point x="202" y="-4"/>
      <point x="221" y="0" type="curve"/>
      <point x="208" y="29"/>
      <point x="201" y="82"/>
      <point x="201" y="150" type="curve" smooth="yes"/>
      <point x="201" y="202"/>
      <point x="202" y="247"/>
      <point x="204" y="283" type="curve"/>
      <point x="222" y="297"/>
      <point x="243" y="303"/>
      <point x="271" y="303" type="curve" smooth="yes"/>
      <point x="314" y="303"/>
      <point x="332" y="281"/>
      <point x="332" y="228" type="curve" smooth="yes"/>
      <point x="332" y="148"/>
      <point x="329" y="60"/>
      <point x="325" y="0" type="curve"/>
      <point x="348" y="-4"/>
      <point x="373" y="-6"/>
      <point x="393" y="-6" type="curve" smooth="yes"/>
      <point x="418" y="-6"/>
      <point x="452" y="-4"/>
      <point x="471" y="0" type="curve"/>
      <point x="458" y="29"/>
      <point x="451" y="82"/>
      <point x="451" y="150" type="curve" smooth="yes"/>
      <point x="451" y="181"/>
      <point x="455" y="251"/>
      <point x="455" y="280" type="curve" smooth="yes"/>
      <point x="455" y="362"/>
      <point x="425" y="418"/>
      <point x="338" y="418" type="curve" smooth="yes"/>
      <point x="286" y="418"/>
      <point x="238" y="394"/>
      <point x="203" y="355" type="curve"/>
      <point x="197" y="392"/>
      <point x="177" y="414"/>
      <point x="135" y="414" type="curve" smooth="yes"/>
      <point x="112" y="414"/>
      <point x="74" y="405"/>
      <point x="43" y="378" type="curve"/>
      <point x="74" y="344"/>
      <point x="82" y="321"/>
      <point x="82" y="213" type="curve" smooth="yes"/>
      <point x="82" y="139"/>
      <point x="79" y="57"/>
      <point x="75" y="0" type="curve"/>
      <point x="98" y="-4"/>
      <point x="132" y="-6"/>
      <point x="156" y="-6" type="curve" smooth="yes"/>
    </contour>
    <contour>
      <point x="265" y="407" type="move" name="top"/>
    </contour>
    <contour>
      <point x="258" y="0" type="move" name="bottom"/>
    </contour>
  </outline>
</glyph>
<glyph name="p" format="1">
  <advance width="518"/>
  <unicode hex="0070"/>
  <outline>
    <contour>
      <point x="121" y="-180"/>
      <point x="164" y="-174"/>
      <point x="208" y="-160" type="curve"/>
      <point x="199" y="-122"/>
      <point x="193" y="-70"/>
      <point x="191" y="2" type="curve"/>
      <point x="212" y="-5"/>
      <point x="235" y="-9"/>
      <point x="260" y="-9" type="curve" smooth="yes"/>
      <point x="401" y="-9"/>
      <point x="484" y="73"/>
      <point x="484" y="212" type="curve" smooth="yes"/>
      <point x="484" y="344"/>
      <point x="425" y="413"/>
      <point x="321" y="413" type="curve" smooth="yes"/>
      <point x="272" y="413"/>
      <point x="225" y="394"/>
      <point x="191" y="362" type="curve"/>
      <point x="184" y="395"/>
      <point x="162" y="414"/>
      <point x="122" y="414" type="curve" smooth="yes"/>
      <point x="101" y="414"/>
      <point x="66" y="405"/>
      <point x="37" y="378" type="curve"/>
      <point x="68" y="344"/>
      <point x="76" y="321"/>
      <point x="76" y="213" type="curve" smooth="yes"/>
      <point x="76" y="49"/>
      <point x="71" y="-104"/>
      <point x="64" y="-180" type="curve"/>
    </contour>
    <contour>
      <point x="231" y="51"/>
      <point x="207" y="62"/>
      <point x="188" y="82" type="curve"/>
      <point x="188" y="112" type="line" smooth="yes"/>
      <point x="188" y="183"/>
      <point x="191" y="243"/>
      <point x="192" y="290" type="curve"/>
      <point x="217" y="303"/>
      <point x="249" y="312"/>
      <point x="278" y="312" type="curve"/>
      <point x="326" y="291"/>
      <point x="354" y="243"/>
      <point x="354" y="177" type="curve" smooth="yes"/>
      <point x="354" y="98"/>
      <point x="318" y="51"/>
      <point x="257" y="51" type="curve" smooth="yes"/>
    </contour>
    <contour>
      <point x="263" y="407" type="move" name="top"/>
    </contour>
    <contour>
      <point x="263" y="0" type="move" name="bottom"/>
    </contour>
  </outline>
</glyph>
<glyph name="q" format="1">
  <advance width="507"/>
  <unicode hex="0071"/>
  <outline>
    <contour>
      <point x="364" y="-180"/>
      <point x="407" y="-176"/>
      <point x="451" y="-165" type="curve"/>
      <point x="444" y="-103"/>
      <point x="439" y="50"/>
      <point x="439" y="213" type="curve" smooth="yes"/>
      <point x="439" y="321"/>
      <point x="447" y="344"/>
      <point x="478" y="378" type="curve"/>
      <point x="450" y="405"/>
      <point x="414" y="414"/>
      <point x="393" y="414" type="curve" smooth="yes"/>
      <point x="360" y="414"/>
      <point x="340" y="401"/>
      <point x="330" y="378" type="curve"/>
      <point x="294" y="404"/>
      <point x="253" y="418"/>
      <point x="208" y="418" type="curve" smooth="yes"/>
      <point x="94" y="418"/>
      <point x="35" y="342"/>
      <point x="35" y="196" type="curve" smooth="yes"/>
      <point x="35" y="59"/>
      <point x="93" y="-12"/>
      <point x="203" y="-12" type="curve" smooth="yes"/>
      <point x="247" y="-12"/>
      <point x="291" y="8"/>
      <point x="326" y="40" type="curve"/>
      <point x="324" y="-61"/>
      <point x="318" y="-132"/>
      <point x="308" y="-180" type="curve"/>
    </contour>
    <contour>
      <point x="189" y="63"/>
      <point x="159" y="113"/>
      <point x="159" y="183" type="curve" smooth="yes"/>
      <point x="159" y="269"/>
      <point x="191" y="311"/>
      <point x="255" y="311" type="curve" smooth="yes"/>
      <point x="279" y="311"/>
      <point x="303" y="305"/>
      <point x="323" y="295" type="curve"/>
      <point x="324" y="247"/>
      <point x="327" y="185"/>
      <point x="327" y="112" type="curve" smooth="yes"/>
      <point x="327" y="98" type="line"/>
      <point x="300" y="74"/>
      <point x="267" y="57"/>
      <point x="237" y="53" type="curve"/>
    </contour>
    <contour>
      <point x="259" y="407" type="move" name="top"/>
    </contour>
    <contour>
      <point x="259" y="0" type="move" name="bottom"/>
    </contour>
  </outline>
</glyph>
<glyph name="r" format="1">
  <advance width="347"/>
  <unicode hex="0072"/>
  <outline>
    <contour>
      <point x="173" y="-6"/>
      <point x="202" y="-4"/>
      <point x="221" y="0" type="curve"/>
      <point x="208" y="29"/>
      <point x="201" y="82"/>
      <point x="201" y="150" type="curve" smooth="yes"/>
      <point x="201" y="194"/>
      <point x="202" y="232"/>
      <point x="203" y="264" type="curve"/>
      <point x="231" y="282"/>
      <point x="281" y="297"/>
      <point x="338" y="288" type="curve"/>
      <point x="338" y="333"/>
      <point x="330" y="393"/>
      <point x="320" y="423" type="curve"/>
      <point x="271" y="409"/>
      <point x="236" y="382"/>
      <point x="205" y="341" type="curve"/>
      <point x="201" y="387"/>
      <point x="179" y="414"/>
      <point x="128" y="414" type="curve" smooth="yes"/>
      <point x="107" y="414"/>
      <point x="72" y="405"/>
      <point x="43" y="378" type="curve"/>
      <point x="74" y="344"/>
      <point x="82" y="321"/>
      <point x="82" y="213" type="curve" smooth="yes"/>
      <point x="82" y="139"/>
      <point x="79" y="57"/>
      <point x="75" y="0" type="curve"/>
      <point x="103" y="-4"/>
      <point x="127" y="-6"/>
      <point x="149" y="-6" type="curve" smooth="yes"/>
    </contour>
    <contour>
      <point x="197" y="407" type="move" name="top"/>
    </contour>
    <contour>
      <point x="145" y="0" type="move" name="bottom"/>
    </contour>
  </outline>
</glyph>
<glyph name="t" format="1">
  <advance width="326"/>
  <unicode hex="0074"/>
  <outline>
    <contour>
      <point x="223" y="-9"/>
      <point x="277" y="16"/>
      <point x="304" y="53" type="curve"/>
      <point x="298" y="92" type="line"/>
      <point x="278" y="88"/>
      <point x="251" y="84"/>
      <point x="221" y="83" type="curve"/>
      <point x="213" y="128"/>
      <point x="209" y="190"/>
      <point x="209" y="252" type="curve" smooth="yes"/>
      <point x="209" y="279"/>
      <point x="210" y="305"/>
      <point x="212" y="330" type="curve"/>
      <point x="249" y="329"/>
      <point x="276" y="325"/>
      <point x="295" y="318" type="curve"/>
      <point x="307" y="345"/>
      <point x="312" y="369"/>
      <point x="312" y="404" type="curve"/>
      <point x="293" y="400"/>
      <point x="262" y="397"/>
      <point x="214" y="396" type="curve"/>
      <point x="213" y="421"/>
      <point x="211" y="447"/>
      <point x="209" y="466" type="curve"/>
      <point x="160" y="469" type="line"/>
      <point x="115" y="426"/>
      <point x="71" y="393"/>
      <point x="20" y="368" type="curve"/>
      <point x="20" y="335"/>
      <point x="35" y="327"/>
      <point x="91" y="327" type="curve"/>
      <point x="92" y="319"/>
      <point x="93" y="306"/>
      <point x="93" y="297" type="curve" smooth="yes"/>
      <point x="93" y="213"/>
      <point x="89" y="153"/>
      <point x="89" y="86" type="curve" smooth="yes"/>
      <point x="89" y="15"/>
      <point x="112" y="-9"/>
      <point x="173" y="-9" type="curve" smooth="yes"/>
    </contour>
    <contour>
      <point x="156" y="204" type="move" name="center"/>
    </contour>
    <contour>
      <point x="172" y="407" type="move" name="top"/>
    </contour>
    <contour>
      <point x="331" y="407" type="move" name="topright"/>
    </contour>
    <contour>
      <point x="162" y="0" type="move" name="bottom"/>
    </contour>
  </outline>
</glyph>
<glyph name="x" format="1">
  <advance width="458"/>
  <unicode hex="0078"/>
  <outline>
    <contour>
      <point x="41" y="-6"/>
      <point x="77" y="-5"/>
      <point x="122" y="0" type="curve"/>
      <point x="126" y="17"/>
      <point x="139" y="42"/>
      <point x="207" y="136" type="curve"/>
      <point x="243" y="83"/>
      <point x="276" y="32"/>
      <point x="298" y="-6" type="curve"/>
      <point x="360" y="-6"/>
      <point x="412" y="-1"/>
      <point x="455" y="15" type="curve"/>
      <point x="425" y="43"/>
      <point x="355" y="132"/>
      <point x="288" y="226" type="curve"/>
      <point x="334" y="287"/>
      <point x="394" y="361"/>
      <point x="440" y="413" type="curve"/>
      <point x="403" y="413"/>
      <point x="367" y="411"/>
      <point x="322" y="402" type="curve"/>
      <point x="318" y="386"/>
      <point x="307" y="364"/>
      <point x="248" y="283" type="curve"/>
      <point x="215" y="331"/>
      <point x="186" y="377"/>
      <point x="165" y="413" type="curve"/>
      <point x="104" y="413"/>
      <point x="52" y="408"/>
      <point x="9" y="392" type="curve"/>
      <point x="39" y="365"/>
      <point x="104" y="282"/>
      <point x="166" y="194" type="curve"/>
      <point x="120" y="132"/>
      <point x="56" y="50"/>
      <point x="4" y="-6" type="curve"/>
    </contour>
    <contour>
      <point x="231" y="407" type="move" name="top"/>
    </contour>
    <contour>
      <point x="231" y="0" type="move" name="bottom"/>
    </contour>
  </outline>
</glyph>
<glyph name="bar" format="1">
  <advance width="351"/>
  <unicode hex="007C"/>
  <outline>
    <contour>
      <point x="210" y="-111"/>
      <point x="236" y="-109"/>
      <point x="261" y="-103" type="curve"/>
      <point x="250" y="-36"/>
      <point x="245" y="51"/>
      <point x="245" y="287" type="curve" smooth="yes"/>
      <point x="245" y="372"/>
      <point x="250" y="560"/>
      <point x="256" y="630" type="curve"/>
      <point x="226" y="636"/>
      <point x="200" y="639"/>
      <point x="178" y="639" type="curve" smooth="yes"/>
      <point x="147" y="639"/>
      <point x="116" y="636"/>
      <point x="90" y="630" type="curve"/>
      <point x="100" y="573"/>
      <point x="106" y="485"/>
      <point x="106" y="287" type="curve" smooth="yes"/>
      <point x="106" y="196"/>
      <point x="100" y="-13"/>
      <point x="95" y="-103" type="curve"/>
      <point x="129" y="-109"/>
      <point x="159" y="-111"/>
      <point x="186" y="-111" type="curve" smooth="yes"/>
    </contour>
  </outline>
</glyph>
<glyph name="cent" format="1">
  <advance width="403"/>
  <unicode hex="00A2"/>
  <outline>
    <contour>
      <point x="255" y="446" type="line"/>
      <point x="256" y="498"/>
      <point x="258" y="543"/>
      <point x="260" y="576" type="curve"/>
      <point x="244" y="581"/>
      <point x="230" y="583"/>
      <point x="216" y="583" type="curve" smooth="yes"/>
      <point x="203" y="583"/>
      <point x="187" y="580"/>
      <point x="174" y="576" type="curve"/>
      <point x="179" y="553"/>
      <point x="181" y="510"/>
      <point x="184" y="446" type="curve"/>
    </contour>
    <contour>
      <point x="235" y="-56"/>
      <point x="250" y="-54"/>
      <point x="264" y="-49" type="curve"/>
      <point x="259" y="-27"/>
      <point x="256" y="15"/>
      <point x="254" y="75" type="curve"/>
      <point x="181" y="75" type="line"/>
      <point x="180" y="26"/>
      <point x="179" y="-18"/>
      <point x="177" y="-49" type="curve"/>
      <point x="194" y="-54"/>
      <point x="208" y="-56"/>
      <point x="222" y="-56" type="curve" smooth="yes"/>
    </contour>
    <component base="c" yOffset="61"/>
  </outline>
</glyph>
<glyph name="guillemetleft" format="1">
  <advance width="491"/>
  <unicode hex="00AB"/>
  <outline>
    <contour>
      <point x="417" y="56"/>
      <point x="438" y="78"/>
      <point x="458" y="111" type="curve"/>
      <point x="347" y="222" type="line"/>
      <point x="458" y="334" type="line"/>
      <point x="438" y="367"/>
      <point x="417" y="390"/>
      <point x="379" y="419" type="curve"/>
      <point x="336" y="355"/>
      <point x="294" y="305"/>
      <point x="237" y="241" type="curve"/>
      <point x="237" y="204" type="line"/>
      <point x="294" y="140"/>
      <point x="336" y="90"/>
      <point x="379" y="27" type="curve"/>
    </contour>
    <contour>
      <point x="203" y="56"/>
      <point x="224" y="78"/>
      <point x="244" y="111" type="curve"/>
      <point x="133" y="222" type="line"/>
      <point x="244" y="334" type="line"/>
      <point x="224" y="367"/>
      <point x="203" y="390"/>
      <point x="165" y="419" type="curve"/>
      <point x="122" y="355"/>
      <point x="80" y="305"/>
      <point x="23" y="241" type="curve"/>
      <point x="23" y="204" type="line"/>
      <point x="80" y="140"/>
      <point x="122" y="90"/>
      <point x="165" y="27" type="curve"/>
    </contour>
  </outline>
</glyph>
<glyph name="paragraph" format="1">
  <advance width="448"/>
  <unicode hex="00B6"/>
  <outline>
    <contour>
      <point x="334" y="-6"/>
      <point x="363" y="-4"/>
      <point x="396" y="0" type="curve"/>
      <point x="390" y="58"/>
      <point x="385" y="171"/>
      <point x="385" y="263" type="curve" smooth="yes"/>
      <point x="385" y="391"/>
      <point x="389" y="473"/>
      <point x="398" y="505" type="curve"/>
      <point x="360" y="519"/>
      <point x="289" y="531"/>
      <point x="222" y="531" type="curve" smooth="yes"/>
      <point x="95" y="531"/>
      <point x="22" y="483"/>
      <point x="22" y="370" type="curve" smooth="yes"/>
      <point x="22" y="288"/>
      <point x="67" y="225"/>
      <point x="122" y="193" type="curve"/>
      <point x="154" y="193"/>
      <point x="205" y="206"/>
      <point x="257" y="226" type="curve"/>
      <point x="255" y="110"/>
      <point x="250" y="34"/>
      <point x="241" y="0" type="curve"/>
      <point x="263" y="-4"/>
      <point x="286" y="-6"/>
      <point x="309" y="-6" type="curve" smooth="yes"/>
    </contour>
  </outline>
</glyph>
<glyph name="Thorn" format="1">
  <advance width="497"/>
  <unicode hex="00DE"/>
  <outline>
    <contour>
      <point x="155" y="-6"/>
      <point x="178" y="-4"/>
      <point x="201" y="0" type="curve"/>
      <point x="195" y="15"/>
      <point x="191" y="43"/>
      <point x="188" y="84" type="curve"/>
      <point x="206" y="81"/>
      <point x="225" y="80"/>
      <point x="245" y="80" type="curve" smooth="yes"/>
      <point x="381" y="80"/>
      <point x="475" y="160"/>
      <point x="475" y="276" type="curve" smooth="yes"/>
      <point x="475" y="389"/>
      <point x="396" y="452"/>
      <point x="255" y="452" type="curve" smooth="yes"/>
      <point x="233" y="452"/>
      <point x="211" y="451"/>
      <point x="191" y="448" type="curve"/>
      <point x="192" y="479"/>
      <point x="194" y="506"/>
      <point x="196" y="527" type="curve"/>
      <point x="169" y="531"/>
      <point x="145" y="533"/>
      <point x="125" y="533" type="curve" smooth="yes"/>
      <point x="99" y="533"/>
      <point x="73" y="531"/>
      <point x="50" y="527" type="curve"/>
      <point x="60" y="497"/>
      <point x="66" y="415"/>
      <point x="66" y="293" type="curve" smooth="yes"/>
      <point x="66" y="197"/>
      <point x="60" y="71"/>
      <point x="55" y="0" type="curve"/>
      <point x="84" y="-4"/>
      <point x="110" y="-6"/>
      <point x="133" y="-6" type="curve" smooth="yes"/>
    </contour>
    <contour>
      <point x="259" y="147"/>
      <point x="223" y="155"/>
      <point x="185" y="167" type="curve"/>
      <point x="183" y="224"/>
      <point x="183" y="303"/>
      <point x="187" y="364" type="curve"/>
      <point x="203" y="368"/>
      <point x="218" y="371"/>
      <point x="234" y="371" type="curve" smooth="yes"/>
      <point x="305" y="371"/>
      <point x="346" y="340"/>
      <point x="346" y="268" type="curve" smooth="yes"/>
      <point x="346" y="212"/>
      <point x="318" y="167"/>
      <point x="282" y="147" type="curve"/>
    </contour>
    <contour>
      <point x="249" y="527" type="move" name="top"/>
    </contour>
    <contour>
      <point x="249" y="0" type="move" name="bottom"/>
    </contour>
  </outline>
</glyph>
<glyph name="OE" format="1">
  <advance width="806"/>
  <unicode hex="0152"/>
  <outline>
    <contour>
      <point x="414" y="-6"/>
      <point x="477" y="4"/>
      <point x="562" y="4" type="curve" smooth="yes"/>
      <point x="633" y="4"/>
      <point x="706" y="2"/>
      <point x="755" y="-3" type="curve"/>
      <point x="768" y="17"/>
      <point x="776" y="81"/>
      <point x="776" y="123" type="curve"/>
      <point x="735" y="106"/>
      <point x="667" y="96"/>
      <point x="607" y="96" type="curve" smooth="yes"/>
      <point x="578" y="96"/>
      <point x="547" y="99"/>
      <point x="522" y="103" type="curve"/>
      <point x="520" y="132"/>
      <point x="519" y="191"/>
      <point x="519" y="227" type="curve"/>
      <point x="583" y="227"/>
      <point x="625" y="225"/>
      <point x="720" y="219" type="curve"/>
      <point x="722" y="236"/>
      <point x="724" y="252"/>
      <point x="724" y="266" type="curve" smooth="yes"/>
      <point x="724" y="281"/>
      <point x="722" y="297"/>
      <point x="720" y="312" type="curve"/>
      <point x="681" y="305"/>
      <point x="654" y="301"/>
      <point x="581" y="301" type="curve" smooth="yes"/>
      <point x="561" y="301"/>
      <point x="540" y="301"/>
      <point x="520" y="302" type="curve"/>
      <point x="521" y="343"/>
      <point x="522" y="385"/>
      <point x="524" y="422" type="curve"/>
      <point x="548" y="426"/>
      <point x="576" y="428"/>
      <point x="602" y="428" type="curve" smooth="yes"/>
      <point x="655" y="428"/>
      <point x="715" y="419"/>
      <point x="751" y="401" type="curve"/>
      <point x="764" y="420"/>
      <point x="772" y="485"/>
      <point x="772" y="527" type="curve"/>
      <point x="717" y="522"/>
      <point x="636" y="520"/>
      <point x="557" y="520" type="curve" smooth="yes"/>
      <point x="459" y="520"/>
      <point x="410" y="532"/>
      <point x="320" y="532" type="curve" smooth="yes"/>
      <point x="135" y="532"/>
      <point x="33" y="437"/>
      <point x="33" y="266" type="curve" smooth="yes"/>
      <point x="33" y="105"/>
      <point x="158" y="-6"/>
      <point x="340" y="-6" type="curve" smooth="yes"/>
    </contour>
    <contour>
      <point x="221" y="74"/>
      <point x="162" y="162"/>
      <point x="162" y="248" type="curve" smooth="yes"/>
      <point x="162" y="391"/>
      <point x="228" y="451"/>
      <point x="341" y="451" type="curve" smooth="yes"/>
      <point x="361" y="451"/>
      <point x="379" y="448"/>
      <point x="397" y="442" type="curve"/>
      <point x="399" y="405"/>
      <point x="400" y="357"/>
      <point x="400" y="300" type="curve" smooth="yes"/>
      <point x="400" y="230"/>
      <point x="398" y="147"/>
      <point x="395" y="80" type="curve"/>
      <point x="354" y="69"/>
      <point x="317" y="61"/>
      <point x="293" y="61" type="curve"/>
    </contour>
    <contour>
      <point x="403" y="527" type="move" name="top"/>
    </contour>
    <contour>
      <point x="403" y="0" type="move" name="bottom"/>
    </contour>
  </outline>
</glyph>
<glyph name="florin" format="1">
  <advance width="326"/>
  <unicode hex="0192"/>
  <outline>
    <contour>
      <point x="213" y="-38"/>
      <point x="208" y="118"/>
      <point x="208" y="282" type="curve" smooth="yes"/>
      <point x="208" y="447"/>
      <point x="214" y="488"/>
      <point x="243" y="509" type="curve"/>
      <point x="272" y="505"/>
      <point x="305" y="489"/>
      <point x="357" y="455" type="curve"/>
      <point x="371" y="479"/>
      <point x="386" y="540"/>
      <point x="386" y="571" type="curve"/>
      <point x="355" y="580"/>
      <point x="318" y="585"/>
      <point x="277" y="585" type="curve" smooth="yes"/>
      <point x="143" y="585"/>
      <point x="87" y="473"/>
      <point x="87" y="355" type="curve" smooth="yes"/>
      <point x="87" y="252"/>
      <point x="92" y="166"/>
      <point x="92" y="92" type="curve" smooth="yes"/>
      <point x="92" y="19"/>
      <point x="89" y="-42"/>
      <point x="77" y="-96" type="curve"/>
      <point x="121" y="-109"/>
      <point x="164" y="-114"/>
      <point x="220" y="-114" type="curve"/>
    </contour>
    <component base="strokeshortcomb" xOffset="-28" yOffset="70" xScale="0.943"/>
  </outline>
</glyph>
<glyph name="dotaccentcomb" format="1">
  <advance width="223"/>
  <unicode hex="0307"/>
  <outline>
    <contour>
      <point x="140" y="488"/>
      <point x="166" y="513"/>
      <point x="190" y="542" type="curve"/>
      <point x="161" y="566"/>
      <point x="135" y="592"/>
      <point x="111" y="620" type="curve"/>
      <point x="83" y="596"/>
      <point x="57" y="571"/>
      <point x="33" y="542" type="curve"/>
      <point x="62" y="518"/>
      <point x="87" y="492"/>
      <point x="111" y="464" type="curve"/>
    </contour>
    <contour>
      <point x="111" y="607" type="move" name="top"/>
    </contour>
    <contour>
      <point x="111" y="407" type="move" name="_top"/>
    </contour>
  </outline>
</glyph>
<glyph name="dieresiscomb" format="1">
  <advance width="397"/>
  <unicode hex="0308"/>
  <outline>
    <contour>
      <point x="258" y="490"/>
      <point x="283" y="515"/>
      <point x="306" y="542" type="curve"/>
      <point x="278" y="564"/>
      <point x="254" y="589"/>
      <point x="231" y="616" type="curve"/>
      <point x="204" y="594"/>
      <point x="180" y="569"/>
      <point x="157" y="542" type="curve"/>
      <point x="184" y="520"/>
      <point x="209" y="495"/>
      <point x="231" y="468" type="curve"/>
    </contour>
    <contour>
      <point x="192" y="490"/>
      <point x="217" y="515"/>
      <point x="239" y="542" type="curve"/>
      <point x="212" y="564"/>
      <point x="187" y="589"/>
      <point x="165" y="616" type="curve"/>
      <point x="138" y="594"/>
      <point x="113" y="569"/>
      <point x="91" y="542" type="curve"/>
      <point x="118" y="520"/>
      <point x="143" y="495"/>
      <point x="165" y="468" type="curve"/>
    </contour>
    <contour>
      <point x="198" y="607" type="move" name="top"/>
    </contour>
    <contour>
      <point x="198" y="407" type="move" name="_top"/>
    </contour>
  </outline>
</glyph>
<glyph name="cedillacomb" format="1">
  <advance width="208"/>
  <unicode hex="0327"/>
  <outline>
    <contour>
      <point x="172" y="-219"/>
      <point x="207" y="-190"/>
      <point x="207" y="-140" type="curve" smooth="yes"/>
      <point x="207" y="-91"/>
      <point x="169" y="-55"/>
      <point x="109" y="-42" type="curve"/>
      <point x="118" y="14" type="line"/>
      <point x="71" y="14" type="line"/>
      <point x="55" y="-50" type="line"/>
      <point x="101" y="-60"/>
      <point x="126" y="-83"/>
      <point x="126" y="-113" type="curve" smooth="yes"/>
      <point x="126" y="-141"/>
      <point x="106" y="-159"/>
      <point x="74" y="-159" type="curve" smooth="yes"/>
      <point x="53" y="-159"/>
      <point x="30" y="-151"/>
      <point x="13" y="-139" type="curve"/>
      <point x="1" y="-171" type="line"/>
      <point x="25" y="-199"/>
      <point x="68" y="-219"/>
      <point x="111" y="-219" type="curve" smooth="yes"/>
    </contour>
    <contour>
      <point x="92" y="0" type="move" name="_bottom"/>
    </contour>
  </outline>
</glyph>
<glyph name="ogonekcomb" format="1">
  <advance width="218"/>
  <unicode hex="0328"/>
  <outline>
    <contour>
      <point x="147" y="-211"/>
      <point x="192" y="-188"/>
      <point x="217" y="-154" type="curve"/>
      <point x="205" y="-121" type="line"/>
      <point x="187" y="-137"/>
      <point x="163" y="-147"/>
      <point x="141" y="-147" type="curve" smooth="yes"/>
      <point x="106" y="-147"/>
      <point x="84" y="-124"/>
      <point x="84" y="-86" type="curve" smooth="yes"/>
      <point x="84" y="-44"/>
      <point x="111" y="-14"/>
      <point x="158" y="0" type="curve"/>
      <point x="65" y="0"/>
      <point x="3" y="-47"/>
      <point x="2" y="-118" type="curve" smooth="yes"/>
      <point x="2" y="-177"/>
      <point x="39" y="-211"/>
      <point x="102" y="-211" type="curve" smooth="yes"/>
    </contour>
    <contour>
      <point x="158" y="0" type="move" name="_ogonek"/>
    </contour>
  </outline>
</glyph>
<glyph name="strokeshortcomb" format="1">
  <advance width="406"/>
  <unicode hex="0335"/>
  <outline>
    <contour>
      <point x="87" y="223"/>
      <point x="117" y="227"/>
      <point x="201" y="227" type="curve" smooth="yes"/>
      <point x="257" y="227"/>
      <point x="329" y="224"/>
      <point x="366" y="219" type="curve"/>
      <point x="368" y="235"/>
      <point x="370" y="252"/>
      <point x="370" y="266" type="curve" smooth="yes"/>
      <point x="370" y="281"/>
      <point x="368" y="297"/>
      <point x="366" y="312" type="curve"/>
      <point x="321" y="305"/>
      <point x="290" y="301"/>
      <point x="207" y="301" type="curve" smooth="yes"/>
      <point x="150" y="301"/>
      <point x="79" y="304"/>
      <point x="42" y="309" type="curve"/>
      <point x="39" y="293"/>
      <point x="37" y="276"/>
      <point x="37" y="262" type="curve" smooth="yes"/>
      <point x="37" y="247"/>
      <point x="39" y="231"/>
      <point x="42" y="216" type="curve"/>
    </contour>
    <contour>
      <point x="204" y="264" type="move" name="_center"/>
    </contour>
  </outline>
</glyph>
<glyph name="strokelongcomb" format="1">
  <advance width="630"/>
  <unicode hex="0336"/>
  <outline>
    <contour>
      <point x="128" y="187"/>
      <point x="171" y="190"/>
      <point x="304" y="190" type="curve" smooth="yes"/>
      <point x="398" y="190"/>
      <point x="516" y="187"/>
      <point x="578" y="183" type="curve"/>
      <point x="582" y="198"/>
      <point x="586" y="213"/>
      <point x="586" y="226" type="curve" smooth="yes"/>
      <point x="586" y="240"/>
      <point x="582" y="254"/>
      <point x="578" y="268" type="curve"/>
      <point x="509" y="262"/>
      <point x="460" y="259"/>
      <point x="329" y="259" type="curve" smooth="yes"/>
      <point x="233" y="259"/>
      <point x="119" y="261"/>
      <point x="54" y="266" type="curve"/>
      <point x="48" y="251"/>
      <point x="45" y="235"/>
      <point x="45" y="223" type="curve" smooth="yes"/>
      <point x="45" y="209"/>
      <point x="48" y="195"/>
      <point x="54" y="181" type="curve"/>
    </contour>
    <contour>
      <point x="316" y="224" type="move" name="_center"/>
    </contour>
  </outline>
</glyph>
<glyph name="Delta" format="1">
  <advance width="538"/>
  <unicode hex="0394"/>
  <outline>
    <contour>
      <point x="93" y="3"/>
      <point x="181" y="5"/>
      <point x="269" y="5" type="curve" smooth="yes"/>
      <point x="358" y="5"/>
      <point x="446" y="3"/>
      <point x="535" y="0" type="curve"/>
      <point x="499" y="72"/>
      <point x="374" y="395"/>
      <point x="330" y="529" type="curve"/>
      <point x="311" y="532"/>
      <point x="292" y="534"/>
      <point x="271" y="534" type="curve" smooth="yes"/>
      <point x="252" y="534"/>
      <point x="231" y="532"/>
      <point x="209" y="529" type="curve"/>
      <point x="170" y="411"/>
      <point x="45" y="83"/>
      <point x="4" y="0" type="curve"/>
    </contour>
    <contour>
      <point x="207" y="88"/>
      <point x="160" y="89"/>
      <point x="123" y="91" type="curve"/>
      <point x="157" y="186"/>
      <point x="208" y="318"/>
      <point x="243" y="401" type="curve"/>
      <point x="275" y="327"/>
      <point x="328" y="188"/>
      <point x="363" y="89" type="curve"/>
      <point x="335" y="88"/>
      <point x="304" y="88"/>
      <point x="269" y="88" type="curve" smooth="yes"/>
    </contour>
  </outline>
</glyph>
<glyph name="euro" format="1">
  <advance width="517"/>
  <unicode hex="20AC"/>
  <outline>
    <contour>
      <point x="351" y="-11"/>
      <point x="430" y="25"/>
      <point x="473" y="78" type="curve"/>
      <point x="458" y="134" type="line"/>
      <point x="423" y="108"/>
      <point x="365" y="92"/>
      <point x="312" y="92" type="curve" smooth="yes"/>
      <point x="226" y="92"/>
      <point x="179" y="148"/>
      <point x="179" y="269" type="curve" smooth="yes"/>
      <point x="179" y="356"/>
      <point x="223" y="441"/>
      <point x="276" y="459" type="curve"/>
      <point x="308" y="459"/>
      <point x="370" y="425"/>
      <point x="416" y="381" type="curve"/>
      <point x="438" y="403"/>
      <point x="460" y="467"/>
      <point x="460" y="509" type="curve"/>
      <point x="425" y="525"/>
      <point x="377" y="533"/>
      <point x="320" y="533" type="curve" smooth="yes"/>
      <point x="163" y="533"/>
      <point x="54" y="413"/>
      <point x="54" y="241" type="curve" smooth="yes"/>
      <point x="54" y="79"/>
      <point x="132" y="-11"/>
      <point x="276" y="-11" type="curve" smooth="yes"/>
    </contour>
    <component base="strokeshortcomb" xOffset="-31" yOffset="73" xScale="0.968" yScale="0.968"/>
    <component base="strokeshortcomb" xOffset="-35" yOffset="-57" xScale="0.968" yScale="0.968"/>
    <contour>
      <point x="280" y="527" type="move" name="top"/>
    </contour>
    <contour>
      <point x="262" y="0" type="move" name="bottom"/>
    </contour>
  </outline>
</glyph>
<glyph name="literSign" format="1">
  <advance width="288"/>
  <unicode hex="2113"/>
  <outline>
    <contour>
      <point x="219" y="-9"/>
      <point x="267" y="53"/>
      <point x="267" y="137" type="curve"/>
      <point x="241" y="137" type="line"/>
      <point x="241" y="97"/>
      <point x="222" y="63"/>
      <point x="202" y="55" type="curve"/>
      <point x="194" y="81"/>
      <point x="192" y="113"/>
      <point x="192" y="192" type="curve" smooth="yes"/>
      <point x="192" y="247" type="line"/>
      <point x="241" y="298"/>
      <point x="263" y="366"/>
      <point x="263" y="421" type="curve" smooth="yes"/>
      <point x="263" y="492"/>
      <point x="230" y="547"/>
      <point x="179" y="547" type="curve" smooth="yes"/>
      <point x="139" y="547"/>
      <point x="108" y="535"/>
      <point x="79" y="513" type="curve"/>
      <point x="79" y="317" type="line" smooth="yes"/>
      <point x="79" y="234"/>
      <point x="75" y="162"/>
      <point x="75" y="90" type="curve" smooth="yes"/>
      <point x="75" y="14"/>
      <point x="95" y="-9"/>
      <point x="145" y="-9" type="curve" smooth="yes"/>
    </contour>
    <contour>
      <point x="192" y="494" type="line"/>
      <point x="214" y="494"/>
      <point x="236" y="463"/>
      <point x="236" y="421" type="curve" smooth="yes"/>
      <point x="236" y="372"/>
      <point x="220" y="323"/>
      <point x="192" y="283" type="curve"/>
    </contour>
  </outline>
</glyph>
<glyph name="partialdiff" format="1">
  <advance width="543"/>
  <unicode hex="2202"/>
  <outline>
    <contour>
      <point x="383" y="-11"/>
      <point x="491" y="130"/>
      <point x="491" y="311" type="curve" smooth="yes"/>
      <point x="491" y="480"/>
      <point x="392" y="573"/>
      <point x="206" y="573" type="curve"/>
      <point x="188" y="549"/>
      <point x="183" y="529"/>
      <point x="184" y="503" type="curve"/>
      <point x="308" y="503"/>
      <point x="366" y="434"/>
      <point x="368" y="312" type="curve"/>
      <point x="332" y="341"/>
      <point x="290" y="356"/>
      <point x="242" y="356" type="curve" smooth="yes"/>
      <point x="123" y="356"/>
      <point x="32" y="265"/>
      <point x="32" y="146" type="curve" smooth="yes"/>
      <point x="32" y="52"/>
      <point x="103" y="-11"/>
      <point x="214" y="-11" type="curve" smooth="yes"/>
    </contour>
    <contour>
      <point x="186" y="75"/>
      <point x="160" y="104"/>
      <point x="160" y="151" type="curve" smooth="yes"/>
      <point x="160" y="221"/>
      <point x="205" y="290"/>
      <point x="280" y="290" type="curve"/>
      <point x="312" y="280"/>
      <point x="339" y="263"/>
      <point x="361" y="241" type="curve"/>
      <point x="345" y="160"/>
      <point x="300" y="75"/>
      <point x="229" y="75" type="curve" smooth="yes"/>
    </contour>
  </outline>
</glyph>
<glyph name="minus" format="1">
  <advance width="533"/>
  <unicode hex="2212"/>
  <outline>
    <contour>
      <point x="133" y="222"/>
      <point x="200" y="224"/>
      <point x="267" y="224" type="curve" smooth="yes"/>
      <point x="334" y="224"/>
      <point x="402" y="222"/>
      <point x="469" y="219" type="curve"/>
      <point x="471" y="235"/>
      <point x="473" y="252"/>
      <point x="473" y="266" type="curve" smooth="yes"/>
      <point x="473" y="281"/>
      <point x="471" y="297"/>
      <point x="469" y="312" type="curve"/>
      <point x="402" y="309"/>
      <point x="334" y="307"/>
      <point x="267" y="307" type="curve" smooth="yes"/>
      <point x="200" y="307"/>
      <point x="133" y="309"/>
      <point x="65" y="312" type="curve"/>
      <point x="62" y="296"/>
      <point x="60" y="279"/>
      <point x="60" y="265" type="curve" smooth="yes"/>
      <point x="60" y="250"/>
      <point x="62" y="234"/>
      <point x="65" y="219" type="curve"/>
    </contour>
  </outline>
</glyph>
<glyph name="bulletoperator" format="1">
  <advance width="357"/>
  <unicode hex="2219"/>
  <outline>
    <contour>
      <point x="235" y="163"/>
      <point x="281" y="209"/>
      <point x="327" y="265" type="curve"/>
      <point x="272" y="311"/>
      <point x="225" y="358"/>
      <point x="179" y="414" type="curve"/>
      <point x="123" y="368"/>
      <point x="76" y="321"/>
      <point x="30" y="265" type="curve"/>
      <point x="86" y="219"/>
      <point x="133" y="172"/>
      <point x="179" y="117" type="curve"/>
    </contour>
  </outline>
</glyph>
<glyph name="radical" format="1">
  <advance width="474"/>
  <unicode hex="221A"/>
  <outline>
    <contour>
      <point x="307" y="27" type="line"/>
      <point x="356" y="200"/>
      <point x="448" y="495"/>
      <point x="501" y="647" type="curve"/>
      <point x="459" y="647"/>
      <point x="428" y="644"/>
      <point x="394" y="636" type="curve"/>
      <point x="409" y="594"/>
      <point x="367" y="433"/>
      <point x="256" y="102" type="curve"/>
      <point x="236" y="149"/>
      <point x="220" y="220"/>
      <point x="196" y="332" type="curve"/>
      <point x="134" y="332"/>
      <point x="86" y="325"/>
      <point x="37" y="311" type="curve"/>
      <point x="125" y="150"/>
      <point x="119" y="-9"/>
      <point x="208" y="-9" type="curve"/>
    </contour>
  </outline>
</glyph>
<glyph name="infinity" format="1">
  <advance width="619"/>
  <unicode hex="221E"/>
  <outline>
    <contour>
      <point x="221" y="49"/>
      <point x="265" y="84"/>
      <point x="295" y="142" type="curve"/>
      <point x="321" y="91"/>
      <point x="359" y="49"/>
      <point x="427" y="49" type="curve" smooth="yes"/>
      <point x="516" y="49"/>
      <point x="579" y="145"/>
      <point x="579" y="282" type="curve" smooth="yes"/>
      <point x="579" y="396"/>
      <point x="527" y="473"/>
      <point x="448" y="473" type="curve" smooth="yes"/>
      <point x="400" y="473"/>
      <point x="357" y="441"/>
      <point x="327" y="386" type="curve"/>
      <point x="300" y="435"/>
      <point x="260" y="473"/>
      <point x="192" y="473" type="curve" smooth="yes"/>
      <point x="103" y="473"/>
      <point x="40" y="377"/>
      <point x="40" y="240" type="curve" smooth="yes"/>
      <point x="40" y="126"/>
      <point x="92" y="49"/>
      <point x="171" y="49" type="curve" smooth="yes"/>
    </contour>
    <contour>
      <point x="141" y="172"/>
      <point x="115" y="198"/>
      <point x="104" y="241" type="curve"/>
      <point x="104" y="305"/>
      <point x="130" y="350"/>
      <point x="173" y="350" type="curve" smooth="yes"/>
      <point x="223" y="350"/>
      <point x="242" y="285"/>
      <point x="265" y="216" type="curve"/>
      <point x="245" y="188"/>
      <point x="216" y="172"/>
      <point x="182" y="172" type="curve" smooth="yes"/>
    </contour>
    <contour>
      <point x="400" y="172"/>
      <point x="385" y="241"/>
      <point x="359" y="313" type="curve"/>
      <point x="379" y="337"/>
      <point x="405" y="350"/>
      <point x="437" y="350" type="curve" smooth="yes"/>
      <point x="477" y="350"/>
      <point x="504" y="324"/>
      <point x="515" y="281" type="curve"/>
      <point x="515" y="217"/>
      <point x="489" y="172"/>
      <point x="446" y="172" type="curve" smooth="yes"/>
    </contour>
  </outline>
</glyph>
<glyph name="integral" format="1">
  <advance width="352"/>
  <unicode hex="222B"/>
  <outline>
    <contour>
      <point x="183" y="-198"/>
      <point x="239" y="-86"/>
      <point x="239" y="32" type="curve" smooth="yes"/>
      <point x="239" y="129"/>
      <point x="234" y="211"/>
      <point x="234" y="282" type="curve" smooth="yes"/>
      <point x="234" y="447"/>
      <point x="240" y="488"/>
      <point x="269" y="509" type="curve"/>
      <point x="298" y="505"/>
      <point x="331" y="489"/>
      <point x="383" y="455" type="curve"/>
      <point x="397" y="479"/>
      <point x="412" y="540"/>
      <point x="412" y="571" type="curve"/>
      <point x="381" y="580"/>
      <point x="344" y="585"/>
      <point x="303" y="585" type="curve" smooth="yes"/>
      <point x="169" y="585"/>
      <point x="113" y="473"/>
      <point x="113" y="355" type="curve" smooth="yes"/>
      <point x="113" y="258"/>
      <point x="118" y="177"/>
      <point x="118" y="106" type="curve" smooth="yes"/>
      <point x="118" y="-59"/>
      <point x="112" y="-100"/>
      <point x="83" y="-122" type="curve"/>
      <point x="54" y="-118"/>
      <point x="21" y="-102"/>
      <point x="-31" y="-68" type="curve"/>
      <point x="-45" y="-92"/>
      <point x="-60" y="-153"/>
      <point x="-60" y="-184" type="curve"/>
      <point x="-29" y="-193"/>
      <point x="8" y="-198"/>
      <point x="49" y="-198" type="curve" smooth="yes"/>
    </contour>
  </outline>
</glyph>
<glyph name="eight.dnom" format="1">
  <advance width="358"/>
  <outline>
    <contour>
      <point x="253" y="-6"/>
      <point x="315" y="28"/>
      <point x="315" y="81" type="curve" smooth="yes"/>
      <point x="315" y="113"/>
      <point x="294" y="130"/>
      <point x="266" y="142" type="curve"/>
      <point x="291" y="159"/>
      <point x="306" y="181"/>
      <point x="306" y="206" type="curve" smooth="yes"/>
      <point x="306" y="249"/>
      <point x="259" y="277"/>
      <point x="191" y="277" type="curve" smooth="yes"/>
      <point x="110" y="277"/>
      <point x="53" y="242"/>
      <point x="53" y="192" type="curve" smooth="yes"/>
      <point x="53" y="165"/>
      <point x="67" y="148"/>
      <point x="87" y="135" type="curve"/>
      <point x="60" y="118"/>
      <point x="44" y="96"/>
      <point x="44" y="71" type="curve" smooth="yes"/>
      <point x="44" y="26"/>
      <point x="95" y="-6"/>
      <point x="171" y="-6" type="curve" smooth="yes"/>
    </contour>
    <contour>
      <point x="150" y="43"/>
      <point x="132" y="57"/>
      <point x="132" y="78" type="curve" smooth="yes"/>
      <point x="132" y="91"/>
      <point x="137" y="102"/>
      <point x="147" y="111" type="curve"/>
      <point x="188" y="98"/>
      <point x="227" y="90"/>
      <point x="227" y="67" type="curve" smooth="yes"/>
      <point x="227" y="52"/>
      <point x="209" y="43"/>
      <point x="178" y="43" type="curve" smooth="yes"/>
    </contour>
    <contour>
      <point x="168" y="171"/>
      <point x="137" y="179"/>
      <point x="137" y="202" type="curve" smooth="yes"/>
      <point x="137" y="220"/>
      <point x="157" y="232"/>
      <point x="184" y="232" type="curve"/>
      <point x="207" y="228"/>
      <point x="221" y="216"/>
      <point x="221" y="200" type="curve" smooth="yes"/>
      <point x="221" y="184"/>
      <point x="214" y="170"/>
      <point x="203" y="161" type="curve"/>
    </contour>
  </outline>
</glyph>
<glyph name="four.dnom" format="1">
  <advance width="357"/>
  <outline>
    <contour>
      <point x="247" y="-3"/>
      <point x="262" y="-2"/>
      <point x="277" y="0" type="curve"/>
      <point x="276" y="15"/>
      <point x="274" y="35"/>
      <point x="274" y="50" type="curve"/>
      <point x="294" y="50" type="line"/>
      <point x="306" y="72"/>
      <point x="312" y="102"/>
      <point x="312" y="129" type="curve"/>
      <point x="302" y="126"/>
      <point x="289" y="124"/>
      <point x="273" y="122" type="curve"/>
      <point x="273" y="179" type="line"/>
      <point x="255" y="181"/>
      <point x="239" y="182"/>
      <point x="224" y="182" type="curve"/>
      <point x="182" y="120" type="line"/>
      <point x="112" y="120" type="line"/>
      <point x="173" y="198"/>
      <point x="221" y="246"/>
      <point x="248" y="268" type="curve"/>
      <point x="215" y="280"/>
      <point x="184" y="284"/>
      <point x="142" y="284" type="curve"/>
      <point x="83" y="199"/>
      <point x="34" y="119"/>
      <point x="34" y="85" type="curve" smooth="yes"/>
      <point x="34" y="65"/>
      <point x="42" y="50"/>
      <point x="56" y="39" type="curve"/>
      <point x="78" y="47"/>
      <point x="112" y="50"/>
      <point x="183" y="50" type="curve"/>
      <point x="183" y="34"/>
      <point x="182" y="16"/>
      <point x="181" y="0" type="curve"/>
      <point x="199" y="-2"/>
      <point x="217" y="-3"/>
      <point x="232" y="-3" type="curve" smooth="yes"/>
    </contour>
  </outline>
</glyph>
<glyph name="nine.dnom" format="1">
  <advance width="357"/>
  <outline>
    <contour>
      <point x="252" y="-6"/>
      <point x="314" y="53"/>
      <point x="314" y="148" type="curve" smooth="yes"/>
      <point x="314" y="227"/>
      <point x="260" y="277"/>
      <point x="176" y="277" type="curve" smooth="yes"/>
      <point x="100" y="277"/>
      <point x="47" y="234"/>
      <point x="47" y="173" type="curve" smooth="yes"/>
      <point x="47" y="121"/>
      <point x="88" y="86"/>
      <point x="150" y="86" type="curve" smooth="yes"/>
      <point x="176" y="86"/>
      <point x="202" y="94"/>
      <point x="225" y="110" type="curve"/>
      <point x="220" y="66"/>
      <point x="193" y="43"/>
      <point x="148" y="43" type="curve" smooth="yes"/>
      <point x="113" y="43"/>
      <point x="80" y="56"/>
      <point x="63" y="77" type="curve"/>
      <point x="55" y="55"/>
      <point x="50" y="35"/>
      <point x="50" y="18" type="curve"/>
      <point x="81" y="1"/>
      <point x="113" y="-6"/>
      <point x="153" y="-6" type="curve" smooth="yes"/>
    </contour>
    <contour>
      <point x="153" y="123"/>
      <point x="135" y="140"/>
      <point x="135" y="168" type="curve" smooth="yes"/>
      <point x="135" y="195"/>
      <point x="151" y="212"/>
      <point x="176" y="212" type="curve" smooth="yes"/>
      <point x="205" y="212"/>
      <point x="221" y="189"/>
      <point x="225" y="146" type="curve"/>
      <point x="212" y="136"/>
      <point x="197" y="128"/>
      <point x="181" y="123" type="curve"/>
    </contour>
  </outline>
</glyph>
<glyph name="one.dnom" format="1">
  <advance width="357"/>
  <outline>
    <contour>
      <point x="220" y="-3"/>
      <point x="236" y="-2"/>
      <point x="252" y="0" type="curve"/>
      <point x="247" y="52"/>
      <point x="245" y="104"/>
      <point x="245" y="157" type="curve" smooth="yes"/>
      <point x="245" y="196"/>
      <point x="246" y="235"/>
      <point x="249" y="274" type="curve"/>
      <point x="230" y="276"/>
      <point x="214" y="277"/>
      <point x="200" y="277" type="curve"/>
      <point x="179" y="258"/>
      <point x="111" y="218"/>
      <point x="71" y="199" type="curve"/>
      <point x="80" y="180"/>
      <point x="89" y="164"/>
      <point x="103" y="145" type="curve"/>
      <point x="160" y="180" type="line"/>
      <point x="160" y="146" type="line" smooth="yes"/>
      <point x="160" y="103"/>
      <point x="158" y="43"/>
      <point x="154" y="0" type="curve"/>
      <point x="173" y="-2"/>
      <point x="190" y="-3"/>
      <point x="205" y="-3" type="curve" smooth="yes"/>
    </contour>
  </outline>
</glyph>
<glyph name="seven.dnom" format="1">
  <advance width="357"/>
  <outline>
    <contour>
      <point x="286" y="179" type="line" smooth="yes"/>
      <point x="301" y="205"/>
      <point x="308" y="228"/>
      <point x="308" y="244" type="curve" smooth="yes"/>
      <point x="308" y="257"/>
      <point x="301" y="274"/>
      <point x="289" y="284" type="curve"/>
      <point x="272" y="274"/>
      <point x="242" y="268"/>
      <point x="180" y="268" type="curve" smooth="yes"/>
      <point x="123" y="268"/>
      <point x="77" y="270"/>
      <point x="55" y="274" type="curve"/>
      <point x="55" y="246"/>
      <point x="63" y="212"/>
      <point x="76" y="189" type="curve"/>
      <point x="88" y="196"/>
      <point x="106" y="198"/>
      <point x="133" y="198" type="curve" smooth="yes"/>
      <point x="224" y="198" type="line"/>
      <point x="157" y="100"/>
      <point x="107" y="40"/>
      <point x="78" y="13" type="curve"/>
      <point x="111" y="1"/>
      <point x="143" y="-3"/>
      <point x="184" y="-3" type="curve"/>
    </contour>
  </outline>
</glyph>
